<?xml version="1.0" encoding="UTF-8"?>
<svg width="1200pt" height="1200pt" version="1.1" viewBox="0 0 1200 1200" xmlns="http://www.w3.org/2000/svg">
 <path d="m600 75-600 600h150v450h900v-450h150zm213.36 339.53c28.98 0 52.801 23.676 52.801 52.738 0 29.293-23.82 52.812-52.801 52.812-29.293 0-52.895-23.508-52.895-52.812 0-29.062 23.602-52.738 52.895-52.738zm-213.43 321.1c18.035 0 32.496 14.293 32.496 32.27 0 17.809-14.461 32.34-32.496 32.34-17.891 0-32.578-14.531-32.578-32.34-0.003906-17.98 14.672-32.27 32.578-32.27zm-213.38-321.01c29.293 0 52.969 23.594 52.969 52.812 0 29.148-23.676 52.812-52.969 52.812-29.062 0-52.738-23.676-52.738-52.812 0.011719-29.223 23.688-52.812 52.738-52.812zm52.355 414.45-10.547 194.76c0 6.793-5.543 12.422-12.266 12.422-7.0312 0-12.504-5.6289-12.504-12.422l-11.41-194.76h-11.797l-10.703 194.76c0 6.793-5.4727 12.422-12.422 12.422-6.6367 0-12.191-5.6289-12.191-12.422l-10.777-194.76h-34.367l35.629-218.52-71.723 142.81c-2.6641 6.2539-10.078 9.3711-16.402 6.793-6.1797-2.8086-9.2266-9.9258-6.4062-16.332 0 0 52.738-142.19 65.473-168.5 13.043-26.723 25.934-42.816 75.156-42.816h9.9961c49.379 0 62.184 16.094 75.07 42.816 13.129 26.328 65.543 168.5 65.543 168.5 2.6523 6.4062-0.15625 13.523-6.4922 16.332-6.3242 2.5781-13.598-0.55078-16.176-6.793l-71.723-142.81 35.473 218.52zm261.95-53.434c-1.4023 2.1133-30.238 46.645-47.113 56.867-16.332 9.9258-16.871 5.543-18.277 19.922l-2.1133 42.805 6.0977 124.45c0.23828 1.1055 0 7.0312-0.16797 7.3438-1.7148 5.2422-6.6367 9.2266-12.336 9.2266s-10.391-3.6016-12.574-8.5195c0-0.15625-14.461-101.57-14.461-101.57s-14.531 101.41-14.531 101.57c-1.957 4.9219-6.793 8.5195-12.422 8.5195-5.6289 0-10.633-3.9844-12.191-9.2266-0.39453-0.3125-0.46875-6.2539-0.39453-7.3438l6.168-124.45-2.0273-42.805c-1.4023-14.375-2.0273-9.9961-18.359-19.922-16.871-10.234-45.707-54.758-47.113-56.867-1.4023-2.1133-4.1406-6.2539-4.5234-8.5195-0.9375-4.6914 2.0273-8.9883 6.6367-9.7578 3.3594-0.63672 6.0977 1.3203 8.207 3.5898 2.3398 2.3398 35.473 46.332 60 50.555 5.6289-0.70703 11.797-3.6016 27.504-3.6016h6.2539c15.625 0 21.805 2.8906 27.434 3.6016 24.613-4.2227 57.66-48.215 59.762-50.555 2.1836-2.2578 5.0742-4.2227 8.4375-3.5898 4.5234 0.76953 7.5 5.0742 6.5625 9.7578-0.40234 2.2539-3.0508 6.4062-4.457 8.5195zm251.48-15.707c-6.2539 2.6523-13.68-0.39453-16.332-6.7305l-64.367-142.74-3.5156 114.77h-0.15625l10.152 288.74c0.70703 11.398-7.7383 21.395-19.141 22.188-0.625 0.085938-1.0938 0.085938-1.5586 0.085938-10.777 0-20.004-8.2812-20.629-19.379l-23.605-237.73-23.438 237.73c-0.9375 11.102-10.078 19.379-20.699 19.379-0.63672 0-1.0195 0-1.5703-0.085938-11.316-0.78125-19.992-10.777-19.285-22.188l10.309-288.74-3.5156-114.77-64.691 142.74c-2.5781 6.3242-9.8398 9.3711-16.176 6.7305-6.3242-2.6641-9.1445-10.008-6.4922-16.402 0 0 45.238-142.12 58.285-168.45 12.887-26.484 33.047-42.66 82.262-42.66h10.152c49.223 0 69.227 16.176 82.199 42.66 13.043 26.328 58.43 168.45 58.43 168.45 2.8281 6.3906-0.20703 13.738-6.6172 16.402z"/>
</svg>
