<?xml version="1.0" encoding="UTF-8"?>
<svg width="1200pt" height="1200pt" version="1.1" viewBox="0 0 1200 1200" xmlns="http://www.w3.org/2000/svg">
 <path d="m605.94 270.2c-41.484-39.684-279.85-177.54-605.94-37.07v100.39 670.2h494.06c16.957 14.531 57.266 24.84 104.46 24.84 47.102 0 87.504-10.309 104.52-24.84l496.96 0.003906v-670.2-100.39c-312.66-137.81-562.5 7.9648-594.06 37.066zm-44.305 685.55c0-26.41-231.95-180.78-499.77-12.348v-653.44c53.039-30.434 124.38-49.066 203.12-49.066 163.91 0 296.64 53.785 296.64 153.55zm580.32-12.348c-267.82-168.43-499.62-14.062-499.62 12.348v-561.29c0-99.77 132.74-153.55 296.48-153.55 78.742 0 150.09 18.637 203.14 49.066z"/>
</svg>
