<?xml version="1.0" encoding="UTF-8"?>
<svg width="1200pt" height="1200pt" version="1.1" viewBox="0 0 1200 1200" xmlns="http://www.w3.org/2000/svg">
 <path d="m774.46 760.08s114.7 114.84 115.08 115c36.562 36.805 27.109 101.58-7.5859 136.88l-160 166.73c-61.789 61.57-144.37-23.902-84.371-83.594l101.48-101.57-99.371-98.688z"/>
 <path d="m417.72 760.08s-114.46 114.84-114.46 115c-36.875 36.805-27.422 101.58 6.875 136.88l160.63 166.73c61.559 61.57 144.16-23.902 84.457-83.594l-101.33-101.57 98.676-98.688-134.86-134.76"/>
 <path d="m600.14 332.79c91.883 0 166.41-74.34 166.41-166.61 0-91.801-74.531-166.18-166.41-166.18-92.027 0-166.64 74.375-166.64 166.19 0 92.27 74.617 166.6 166.64 166.6z"/>
 <path d="m780.47 693.43 2.4258-113.52 138.28 129.07c11.328 10.621 25.777 15.77 40.246 15.77 15.707 0 31.477-6.2539 43.043-18.672 22.262-23.832 20.941-61.105-2.8086-83.281 0 0-158.61-172.36-181.33-192.43-42.266-37.43-104.15-58.598-204.54-58.598h-31.559c-100.39 0-162.28 21.168-204.54 58.598-22.742 20.09-181.35 192.43-181.35 192.43-23.746 22.188-25.078 59.449-2.8086 83.281 11.555 12.422 27.348 18.672 43.043 18.672 14.449 0 28.906-5.1602 40.234-15.77l138.29-129.07 2.4258 113.52z"/>
</svg>
