<?xml version="1.0" encoding="UTF-8"?>
<svg width="1200pt" height="1200pt" version="1.1" viewBox="0 0 1200 1200" xmlns="http://www.w3.org/2000/svg">
 <path d="m600 324.01c-194.91 0-353.46 145.35-353.46 324 0 21.047 11.227 40.496 29.453 51.02 18.23 10.523 40.684 10.523 58.91 0 18.23-10.523 29.457-29.973 29.457-51.02 0.27734-31.949 8.5-63.332 23.926-91.312 15.426-27.984 37.57-51.688 64.438-68.98v189.75h294.55v-189.75c26.867 17.293 49.012 40.996 64.438 68.98 15.426 27.98 23.648 59.363 23.926 91.312 0 21.047 11.227 40.496 29.457 51.02 18.227 10.523 40.68 10.523 58.91 0 18.227-10.523 29.453-29.973 29.453-51.02 0-178.66-158.55-324-353.46-324z"/>
 <path d="m732.55 132.55c0 73.207-59.344 132.55-132.55 132.55s-132.55-59.344-132.55-132.55c0-73.203 59.344-132.55 132.55-132.55s132.55 59.344 132.55 132.55"/>
 <path d="m515.76 1092.8c-41.406-28.836-65.145-76.883-62.887-127.29 2.2578-50.406 30.191-96.141 74.008-121.16 2.0156-1.0742 3.4023-3.0352 3.7422-5.293 0.33984-2.2539-0.40625-4.5391-2.0117-6.1602l-74.598-74.598c-2.6172-2.6133-6.7344-2.957-9.7461-0.8125-45.555 33.043-79.402 79.738-96.637 133.31-17.23 53.57-16.957 111.24 0.78906 164.65 17.746 53.406 52.039 99.773 97.906 132.38 11.738 8.5352 26.145 12.578 40.609 11.391s28.023-7.5234 38.211-17.859c11.711-12.469 17.406-29.418 15.605-46.43-1.8047-17.008-10.926-32.391-24.992-42.125z"/>
 <path d="m755.73 757.47c-3.0117-2.1445-7.1289-1.8008-9.7461 0.8125l-74.598 74.602v-0.003906c-1.6055 1.6211-2.3516 3.9023-2.0117 6.1602 0.33984 2.2539 1.7266 4.2188 3.7422 5.2891 43.816 25.023 71.75 70.758 74.008 121.16 2.2578 50.41-21.48 98.457-62.887 127.29-13.797 9.6133-22.828 24.664-24.816 41.363-1.9844 16.699 3.2617 33.449 14.418 46.031 11.156 12.582 27.16 19.797 43.977 19.82 12.008-0.070312 23.711-3.7656 33.578-10.605 46.469-32.301 81.371-78.637 99.594-132.21 18.219-53.578 18.801-111.59 1.6602-165.52-17.141-53.938-51.105-100.96-96.918-134.19z"/>
</svg>
