<?xml version="1.0" encoding="UTF-8"?>
<svg width="1200pt" height="1200pt" version="1.1" viewBox="0 0 1200 1200" xmlns="http://www.w3.org/2000/svg">
 <path d="m890.26 495.43c-9.3359-12.91-24.32-20.543-40.254-20.5h-444.79c-9.1133 0-18.051 2.4961-25.852 7.2109-7.8008 4.7148-14.164 11.473-18.402 19.539l-205.27 413.04c-5.1289 9.7969-6.8828 21.016-4.9844 31.914 1.8984 10.895 7.3438 20.859 15.488 28.344 0 0 305.03 225.02 433.79 225.02 22.145-0.082031 42.969-10.539 56.254-28.254 11.02-13.219 17.582-29.582 18.754-46.754 0-25.004 0-75.008-75.008-100.01-103.76-39.754-176.77-60.254-204.27-75.008-14.75-7.75-25.754-20.75-18-35.504 29.027-59.102 45.137-123.71 47.254-189.52 0-50.004 25.004-75.008 50.004-75.008 25.004 0 50.004 25.004 50.004 75.008 0 84.008 126.01 185.52 165.52 216.02 6.4141 5.5469 9.8398 13.793 9.25 22.25 0 36.754-4.25 111.76 62.754 111.76 87.508 0 287.53-125.01 287.53-250.02 0.003907-102.26-117.26-271.52-159.76-329.53zm-140.27 354.53 0.003906 0.003906c-26.527 0-51.965-10.539-70.719-29.293-18.754-18.754-29.293-44.191-29.293-70.719 0-26.523 10.539-51.961 29.293-70.715 18.754-18.758 44.191-29.293 70.719-29.293 26.523 0 51.961 10.535 70.715 29.293 18.758 18.754 29.293 44.191 29.293 70.715 0.007813 26.527-10.527 51.969-29.285 70.727-18.758 18.758-44.199 29.289-70.723 29.285z"/>
 <path d="m800 175.02c0 96.66-78.355 175.02-175.02 175.02-96.66 0-175.02-78.355-175.02-175.02 0-96.656 78.355-175.02 175.02-175.02 96.66 0 175.02 78.359 175.02 175.02"/>
</svg>
